<svg width="20" height="19" viewBox="0 0 20 19" fill="none" xmlns="http://www.w3.org/2000/svg">
<path d="M1.23737 0.288449C0.844418 0.157459 0.419678 0.369829 0.288688 0.762789C0.157708 1.15575 0.370078 1.58049 0.763028 1.71147L1.02794 1.79978C1.70435 2.02524 2.15155 2.17551 2.481 2.32877C2.79296 2.47389 2.92784 2.59069 3.01426 2.71059C3.10068 2.83049 3.16883 2.99538 3.20785 3.33722C3.24907 3.69823 3.2502 4.17 3.2502 4.883V7.55484C3.25018 8.9224 3.25017 10.0247 3.36673 10.8917C3.48774 11.7918 3.74664 12.5497 4.34855 13.1516C4.95047 13.7535 5.70834 14.0124 6.60845 14.1334C7.47542 14.25 8.57773 14.25 9.9453 14.25H17.0002C17.4144 14.25 17.7502 13.9142 17.7502 13.5C17.7502 13.0857 17.4144 12.75 17.0002 12.75H10.0002C8.56479 12.75 7.56367 12.7484 6.80832 12.6468C6.07455 12.5482 5.68598 12.3677 5.40921 12.091C5.17403 11.8558 5.00839 11.5398 4.9034 11H15.0222C15.9817 11 16.4614 11 16.8371 10.7522C17.2128 10.5045 17.4017 10.0636 17.7797 9.1817L18.2082 8.1817C19.0177 6.2929 19.4225 5.34849 18.9779 4.67422C18.5333 3.99996 17.5058 3.99996 15.4508 3.99996H4.74526C4.73936 3.69227 4.72644 3.41467 4.69817 3.16708C4.64282 2.68226 4.52222 2.2374 4.23112 1.83352C3.94002 1.42965 3.55613 1.17456 3.1137 0.968729C2.69746 0.775099 2.16814 0.598679 1.54176 0.389909L1.23737 0.288449Z" fill="#8E8FA9"/>
<path d="M6.5 16C7.32843 16 8 16.6716 8 17.5C8 18.3284 7.32843 19 6.5 19C5.67157 19 5 18.3284 5 17.5C5 16.6716 5.67157 16 6.5 16Z" fill="#8E8FA9"/>
<path d="M15.5 16C16.3284 16 17 16.6715 17 17.5C17 18.3284 16.3284 19 15.5 19C14.6716 19 14 18.3284 14 17.5C14 16.6715 14.6716 16 15.5 16Z" fill="#8E8FA9"/>
</svg>
